name analog
datacolumns 19
datarows 34
range 0.518 0.5345
endheader
time	ground_force_vx	ground_force_vy	ground_force_vz	ground_force_px	ground_force_py	ground_force_pz	l_ground_force_vx	l_ground_force_vy	l_ground_force_vz	l_ground_force_px	l_ground_force_py	l_ground_force_pz	ground_torque_x	ground_torque_y	ground_torque_z	l_ground_torque_x	l_ground_torque_y	l_ground_torque_z
0.518	-0.0	-0.0	-0.0	-0.0	-0.0	-0.0	-0.0462320260703563	0.8550218939781189	-630.0514526367188	-0.0	-0.0	-0.0	-0.0	-0.0	-0.0	189365.765625	-20126.064453125	-1086.6605224609375
0.5185	-0.0	-0.0	-0.0	-0.0	-0.0	-0.0	-0.6068804860115051	0.971538543701172	-629.4649047851562	-0.0	-0.0	-0.0	-0.0	-0.0	-0.0	189157.96875	-19845.23828125	-1191.459716796875
0.519	-0.0	-0.0	-0.0	-0.0	-0.0	-0.0	-0.9011384844779968	0.7809261083602905	-629.9425048828125	-0.0	-0.0	-0.0	-0.0	-0.0	-0.0	188880.453125	-19466.265625	-1349.3994140625
0.5195	-0.0	-0.0	-0.0	-0.0	-0.0	-0.0	-1.41937255859375	0.7532187104225159	-628.1787109375	-0.0	-0.0	-0.0	-0.0	-0.0	-0.0	189030.25	-19134.064453125	-1395.0279541015625
0.52	-0.0	-0.0	-0.0	-0.0	-0.0	-0.0	-1.549729347229004	0.9300752878189088	-630.2732543945312	-0.0	-0.0	-0.0	-0.0	-0.0	-0.0	189362.625	-18938.822265625	-1365.4117431640625
0.5205	-0.0	-0.0	-0.0	-0.0	-0.0	-0.0	-1.8491153717041016	0.8498973250389099	-630.9169921875	-0.0	-0.0	-0.0	-0.0	-0.0	-0.0	189565.78125	-18458.875	-1399.9273681640625
0.521	-0.0	-0.0	-0.0	-0.0	-0.0	-0.0	-2.4501266479492188	1.039906620979309	-631.910400390625	-0.0	-0.0	-0.0	-0.0	-0.0	-0.0	189602.578125	-18164.873046875	-1503.05029296875
0.5215	-0.0	-0.0	-0.0	-0.0	-0.0	-0.0	-2.845435619354248	1.3859268426895142	-633.361083984375	-0.0	-0.0	-0.0	-0.0	-0.0	-0.0	190198.4375	-17962.720703125	-1619.4803466796875
0.522	-0.0	-0.0	-0.0	-0.0	-0.0	-0.0	-2.435969591140747	1.8276890516281128	-635.1884155273438	-0.0	-0.0	-0.0	-0.0	-0.0	-0.0	190292.140625	-17523.548828125	-1484.47021484375
0.5225	-0.0	-0.0	-0.0	-0.0	-0.0	-0.0	-1.4404737949371338	1.0388514995574951	-634.218994140625	-0.0	-0.0	-0.0	-0.0	-0.0	-0.0	190736.75	-17262.751953125	-760.9952392578125
0.523	-0.0	-0.0	-0.0	-0.0	-0.0	-0.0	-0.8008629083633423	1.889480710029602	-635.1814575195312	-0.0	-0.0	-0.0	-0.0	-0.0	-0.0	190506.71875	-17204.2265625	-600.533203125
0.5235	-0.0	-0.0	-0.0	-0.0	-0.0	-0.0	-1.8530158996582031	1.544890284538269	-635.1594848632812	-0.0	-0.0	-0.0	-0.0	-0.0	-0.0	190363.671875	-16511.443359375	-731.9205932617188
0.524	-0.0	-0.0	-0.0	-0.0	-0.0	-0.0	-2.275341749191284	0.415290892124176	-632.767578125	-0.0	-0.0	-0.0	-0.0	-0.0	-0.0	189998.59375	-16357.9765625	-937.4032592773438
0.5245	-0.0	-0.0	-0.0	-0.0	-0.0	-0.0	-2.364689826965332	0.7948951721191406	-629.9895629882812	-0.0	-0.0	-0.0	-0.0	-0.0	-0.0	189269.296875	-15528.783203125	-864.8255004882812
0.525	-0.0	-0.0	-0.0	-0.0	-0.0	-0.0	-2.174795150756836	0.1242002695798873	-631.0587768554688	-0.0	-0.0	-0.0	-0.0	-0.0	-0.0	188901.34375	-15291.529296875	-882.6295776367188
0.5255	-0.0	-0.0	-0.0	-0.0	-0.0	-0.0	-2.017163753509521	-0.6935256719589233	-628.5760498046875	-0.0	-0.0	-0.0	-0.0	-0.0	-0.0	188313.953125	-15111.037109375	-815.686767578125
0.526	-0.0	-0.0	-0.0	-0.0	-0.0	-0.0	-2.7109501361846924	-1.0962982177734375	-628.524169921875	-0.0	-0.0	-0.0	-0.0	-0.0	-0.0	187941.859375	-14261.1708984375	-939.2176513671876
0.5265	-0.0	-0.0	-0.0	-0.0	-0.0	-0.0	-3.091918706893921	-1.337727189064026	-627.7314453125	-0.0	-0.0	-0.0	-0.0	-0.0	-0.0	188133.015625	-14172.8720703125	-1015.4492797851562
0.527	-0.0	-0.0	-0.0	-0.0	-0.0	-0.0	-2.877429962158203	-1.7535953521728516	-629.1712646484375	-0.0	-0.0	-0.0	-0.0	-0.0	-0.0	188419.640625	-14051.6123046875	-1024.0050048828125
0.5275	-0.0	-0.0	-0.0	-0.0	-0.0	-0.0	-3.20741868019104	-2.20804214477539	-631.26611328125	-0.0	-0.0	-0.0	-0.0	-0.0	-0.0	188625.3125	-13729.513671875	-1253.017822265625
0.528	-0.0	-0.0	-0.0	-0.0	-0.0	-0.0	-4.587451934814453	-2.019268035888672	-633.1602783203125	-0.0	-0.0	-0.0	-0.0	-0.0	-0.0	188861.859375	-13314.66796875	-1588.764404296875
0.5285	-0.0	-0.0	-0.0	-0.0	-0.0	-0.0	-5.1072492599487305	-2.536072969436645	-632.7625732421875	-0.0	-0.0	-0.0	-0.0	-0.0	-0.0	189144.703125	-13168.90234375	-1775.6363525390625
0.529	-0.0	-0.0	-0.0	-0.0	-0.0	-0.0	-6.095831394195557	-2.30891489982605	-634.7080688476562	-0.0	-0.0	-0.0	-0.0	-0.0	-0.0	189180.671875	-12990.5869140625	-1814.2724609375
0.5295	-0.0	-0.0	-0.0	-0.0	-0.0	-0.0	-6.830730438232422	-2.2330172061920166	-636.50341796875	-0.0	-0.0	-0.0	-0.0	-0.0	-0.0	189621.296875	-12449.25390625	-2149.929443359375
0.53	-0.0	-0.0	-0.0	-0.0	-0.0	-0.0	-7.577812671661377	-1.8671660423278809	-637.4527587890625	-0.0	-0.0	-0.0	-0.0	-0.0	-0.0	189847.40625	-12382.408203125	-2213.50732421875
0.5305	-0.0	-0.0	-0.0	-0.0	-0.0	-0.0	-8.592544555664062	-1.577443242073059	-637.5997314453125	-0.0	-0.0	-0.0	-0.0	-0.0	-0.0	189576.90625	-11965.138671875	-2544.542724609375
0.531	-0.0	-0.0	-0.0	-0.0	-0.0	-0.0	-8.452184677124023	-0.9077688455581664	-638.5982666015625	-0.0	-0.0	-0.0	-0.0	-0.0	-0.0	189549.953125	-11823.2666015625	-2663.636474609375
0.5315	-0.0	-0.0	-0.0	-0.0	-0.0	-0.0	-8.488788604736328	-0.7460988759994507	-639.39306640625	-0.0	-0.0	-0.0	-0.0	-0.0	-0.0	189305.046875	-11843.0869140625	-2498.006103515625
0.532	-0.0	-0.0	-0.0	-0.0	-0.0	-0.0	-8.225725173950195	-0.1281024813652038	-639.0914306640625	-0.0	-0.0	-0.0	-0.0	-0.0	-0.0	188742.515625	-11844.814453125	-2322.619873046875
0.5325	-0.0	-0.0	-0.0	-0.0	-0.0	-0.0	-7.786139488220215	0.2408224046230316	-638.296875	-0.0	-0.0	-0.0	-0.0	-0.0	-0.0	188232.359375	-11627.900390625	-2069.79638671875
0.533	-0.0	-0.0	-0.0	-0.0	-0.0	-0.0	-6.830730438232422	-0.0283496789634227	-637.2490844726562	-0.0	-0.0	-0.0	-0.0	-0.0	-0.0	187190.421875	-11900.568359375	-1916.913818359375
0.5335	-0.0	-0.0	-0.0	-0.0	-0.0	-0.0	-6.576574325561523	-0.6659462451934814	-635.9464721679688	-0.0	-0.0	-0.0	-0.0	-0.0	-0.0	186256.125	-11801.9599609375	-1606.7047119140625
0.534	-0.0	-0.0	-0.0	-0.0	-0.0	-0.0	-5.854911804199219	-2.5731756687164307	-633.4078979492188	-0.0	-0.0	-0.0	-0.0	-0.0	-0.0	184811.234375	-11956.2236328125	-1387.091064453125
0.5345	-0.0	-0.0	-0.0	-0.0	-0.0	-0.0	-6.440404891967773	-5.11676549911499	-631.1730346679688	-0.0	-0.0	-0.0	-0.0	-0.0	-0.0	183726.96875	-11492.859375	-1154.8677978515625
